<svg fill="#000000" xmlns="http://www.w3.org/2000/svg" data-name="Layer 1" viewBox="0 0 100 100" x="0px" y="0px">
    <path d="M43,29.16a2.5,2.5,0,0,0,3.26-1.37,4.77,4.77,0,1,1,6.51,6.07,8.14,8.14,0,0,0-4.6,7.32V43a2.5,2.5,0,0,0,5,0v-1.8A3.17,3.17,0,0,1,55,38.35,9.77,9.77,0,0,0,52.6,20a9.83,9.83,0,0,0-11,5.89A2.5,2.5,0,0,0,43,29.16Z"/>
    <path d="M50.69,49.32a2.5,2.5,0,0,0,0,5h0a2.5,2.5,0,1,0,0-5Z"/>
    <path d="M43.56,90a9,9,0,1,0,9-9A9,9,0,0,0,43.56,90Zm12.92,0a4,4,0,1,1-4-4A4,4,0,0,1,56.48,90Z"/>
    <path d="M24.62,56.35a22.43,22.43,0,0,0,3,9.4A11.28,11.28,0,0,0,47.12,77,22.57,22.57,0,0,0,66.6,65.66,20.37,20.37,0,0,0,87.76,32.73a22.77,22.77,0,0,0,1.68-8.62A23.1,23.1,0,0,0,53.11,5.16,22.38,22.38,0,0,0,17.9,20.66a18.78,18.78,0,0,0,6.72,35.69ZM37.72,77A6.29,6.29,0,1,1,44,70.71,6.29,6.29,0,0,1,37.72,77ZM21.14,24.71a2.5,2.5,0,0,0,1.61-2.21A17.38,17.38,0,0,1,51.47,10.22a2.5,2.5,0,0,0,3.24,0A18.1,18.1,0,0,1,84.44,24.11a17.9,17.9,0,0,1-1.89,8A2.5,2.5,0,0,0,83.06,35,15.37,15.37,0,0,1,66.36,60.26a2.5,2.5,0,0,0-3.27,1.28A17.57,17.57,0,0,1,49,71.84c0-.37.06-.75.06-1.13A11.27,11.27,0,0,0,31.08,61.6a17.48,17.48,0,0,1-1.55-7.19v-.15c0-.12,0-.23,0-.35a2.5,2.5,0,0,0-2.66-2.57h-.22c-.23,0-.46,0-.69,0a13.79,13.79,0,0,1-4.86-26.69Z"/>
</svg>
